<?xml version="1.0" standalone="no"?>
<!DOCTYPE svg PUBLIC "-//W3C//DTD SVG 20010904//EN"
 "http://www.w3.org/TR/2001/REC-SVG-20010904/DTD/svg10.dtd">
<svg version="1.0" xmlns="http://www.w3.org/2000/svg"
 width="2138.000000pt" height="2138.000000pt" viewBox="0 0 2138.000000 2138.000000"
 preserveAspectRatio="xMidYMid meet">

<g transform="translate(0.000000,2138.000000) scale(0.100000,-0.100000)"
fill="#000000" stroke="none">
<path d="M16461 18193 c8 -10 22 -26 31 -37 10 -10 15 -23 12 -28 -3 -4 1 -8
8 -8 13 0 20 -9 76 -83 15 -22 22 -26 22 -14 0 9 -3 17 -8 17 -4 0 -13 14 -20
30 -16 35 -109 140 -124 140 -6 0 -4 -8 3 -17z"/>
<path d="M9530 17995 c-113 -8 -268 -16 -345 -20 -77 -3 -169 -10 -205 -15
-36 -5 -126 -14 -200 -20 -182 -14 -312 -28 -390 -41 -83 -14 -211 -37 -275
-48 -27 -5 -81 -15 -120 -21 -115 -18 -413 -86 -485 -110 -14 -4 -59 -18 -100
-30 -197 -56 -284 -83 -325 -100 -11 -5 -49 -19 -85 -31 -85 -29 -394 -174
-520 -244 -94 -52 -300 -191 -442 -297 -228 -170 -504 -474 -690 -760 -116
-178 -266 -464 -323 -618 -20 -52 -28 -74 -45 -115 -103 -253 -201 -694 -251
-1130 -17 -149 -23 -777 -10 -1005 23 -407 78 -756 157 -1005 29 -88 91 -269
104 -300 5 -11 14 -38 21 -60 7 -22 17 -44 21 -49 4 -6 8 -18 8 -27 0 -9 9
-34 20 -56 10 -21 60 -120 109 -220 117 -238 209 -374 406 -602 91 -106 360
-354 492 -454 342 -260 703 -433 1213 -580 282 -82 627 -154 895 -187 50 -6
115 -15 145 -20 30 -5 105 -14 165 -20 61 -6 144 -15 185 -21 176 -22 1121
-58 1540 -59 522 0 1346 27 1785 60 72 5 200 14 285 20 l155 11 15 -23 c60
-94 474 -426 673 -542 47 -27 99 -55 247 -133 41 -21 125 -61 185 -87 61 -26
128 -56 150 -66 22 -9 83 -27 135 -38 52 -12 129 -28 170 -38 113 -25 313 -30
382 -10 82 24 138 70 165 136 35 86 31 135 -33 370 -3 14 -14 43 -24 65 -112
248 -192 463 -205 548 l-7 45 69 25 c37 14 100 36 138 48 223 68 430 160 624
278 46 28 86 51 89 51 8 0 197 133 264 186 103 83 358 341 413 419 27 39 52
72 56 75 11 9 133 192 197 296 54 89 136 250 201 397 22 48 78 213 101 297 7
25 16 54 20 65 34 90 86 327 121 550 11 70 14 91 43 300 23 158 38 558 31 790
-10 338 -23 476 -75 830 -24 157 -97 466 -133 560 -9 22 -32 87 -52 145 -38
110 -40 116 -74 192 -12 26 -21 50 -21 53 0 9 -114 240 -147 299 -71 123 -295
428 -352 480 -35 32 -26 52 37 82 31 16 59 31 62 34 3 3 19 12 35 20 32 16 35
18 80 55 17 14 34 25 38 25 5 0 5 5 2 10 -4 6 -16 3 -32 -10 -14 -11 -34 -20
-44 -20 -9 0 -20 -6 -22 -12 -4 -8 -8 -4 -12 10 -9 27 -25 29 -25 2 0 -11 -4
-20 -10 -20 -5 0 -10 7 -10 15 0 8 -7 15 -15 15 -8 0 -15 -7 -15 -15 0 -8 -4
-15 -10 -15 -5 0 -7 14 -3 33 l6 32 -36 -38 c-20 -20 -37 -42 -37 -47 0 -6 -4
-10 -10 -10 -5 0 -10 7 -10 15 0 8 -4 15 -10 15 -5 0 -10 -9 -10 -20 0 -11 5
-20 10 -20 15 0 12 -40 -2 -42 -14 -1 -44 -4 -94 -6 -37 -2 -65 -42 -45 -66 8
-10 9 -16 1 -21 -5 -3 -10 -3 -10 1 0 4 -10 -2 -22 -13 -13 -11 -30 -23 -38
-26 -8 -3 7 -6 33 -6 69 -1 60 -22 -43 -98 -47 -35 -108 -81 -136 -103 l-52
-40 79 -82 c43 -46 79 -86 79 -90 0 -3 19 -30 43 -60 24 -29 60 -82 82 -118
21 -36 54 -89 73 -119 19 -30 47 -83 62 -118 15 -35 30 -66 34 -70 4 -4 87 -6
184 -5 135 3 181 0 193 -10 14 -11 129 -312 129 -338 0 -5 18 -71 40 -146 45
-153 47 -169 24 -178 -9 -3 -82 -7 -162 -7 -233 -3 -496 -15 -392 -18 47 -2
94 -5 105 -6 11 -1 34 -3 51 -3 35 -2 42 -13 54 -77 5 -22 15 -67 23 -100 8
-33 20 -98 26 -145 7 -47 16 -110 21 -140 21 -125 33 -402 27 -628 -4 -128 -9
-237 -11 -241 -5 -8 -31 -206 -40 -301 -11 -128 -20 -180 -28 -180 -5 0 -6 -4
-3 -10 3 -5 0 -10 -7 -11 -7 -1 -2 -5 12 -9 14 -4 105 -8 203 -9 150 -1 179
-3 184 -16 5 -14 -7 -96 -38 -265 -4 -25 -17 -81 -29 -125 -11 -44 -27 -104
-34 -134 -8 -29 -19 -57 -25 -60 -6 -4 -95 -8 -199 -9 -103 -1 -195 -1 -204
-2 -12 0 -18 -8 -18 -25 0 -14 -4 -33 -10 -43 -5 -9 -14 -28 -20 -42 -5 -14
-14 -32 -19 -40 -5 -8 -17 -34 -27 -57 -14 -32 -23 -41 -36 -37 -13 4 -16 1
-12 -10 3 -9 1 -16 -5 -16 -6 0 -11 -9 -11 -20 0 -23 -10 -26 -28 -8 -9 9 -18
9 -37 0 -14 -7 -35 -12 -46 -12 -27 0 -70 -45 -63 -64 5 -12 -1 -16 -25 -16
-28 0 -31 -2 -25 -25 7 -30 4 -31 -26 -5 -13 11 -32 19 -44 19 -20 -2 -20 -2
2 -6 12 -2 22 -11 22 -20 0 -10 -6 -14 -20 -10 -11 3 -20 1 -20 -3 0 -21 13
-40 28 -40 8 0 12 -3 9 -6 -8 -9 -67 16 -67 27 0 5 -8 9 -17 9 -10 0 -29 9
-43 20 -14 11 -33 20 -43 20 -10 0 -15 5 -12 10 3 6 -3 10 -14 10 -12 0 -21
-2 -21 -4 0 -4 108 -76 115 -76 3 0 31 -16 61 -35 30 -19 59 -35 64 -35 6 0
10 -4 10 -8 0 -5 12 -14 28 -21 15 -7 61 -34 102 -60 41 -26 128 -81 193 -122
64 -41 117 -80 117 -88 0 -7 -15 -31 -32 -51 -18 -21 -57 -72 -86 -113 -29
-41 -82 -106 -117 -143 l-63 -69 -34 19 c-18 11 -91 58 -162 104 -71 46 -135
86 -143 89 -7 3 -22 -5 -32 -18 -10 -13 -58 -53 -105 -89 -47 -36 -86 -68 -86
-72 0 -5 -6 -8 -14 -8 -8 0 -16 -4 -18 -9 -2 -5 -15 -13 -30 -16 -24 -6 -28
-4 -28 14 0 12 -6 21 -15 21 -8 0 -15 5 -15 11 0 7 -9 9 -22 5 -13 -4 -40 -9
-61 -11 -31 -4 -38 -2 -33 10 6 18 -5 20 -21 4 -14 -14 -53 -2 -53 17 0 11 6
13 20 9 15 -5 18 -3 14 9 -7 17 -34 22 -34 7 0 -5 -9 -13 -20 -16 -11 -3 -20
-13 -20 -22 0 -16 -36 -53 -52 -53 -4 0 -8 7 -8 15 0 8 -3 15 -7 15 -12 0 -32
-50 -27 -65 3 -7 -2 -15 -11 -17 -11 -2 21 -31 91 -83 148 -110 337 -246 376
-270 67 -41 58 -50 -180 -167 -261 -128 -398 -181 -595 -229 -48 -12 -49 -11
-85 23 -20 19 -66 57 -102 83 -36 27 -81 63 -100 79 -41 36 -241 175 -296 206
l-38 22 26 -34 c19 -24 25 -42 21 -61 -4 -20 -2 -27 7 -25 21 5 23 -69 2 -76
-78 -27 -202 -149 -202 -200 0 -8 -6 -16 -14 -19 -14 -6 -28 -78 -40 -199 -7
-66 -14 -88 -29 -88 -6 0 -8 2 -5 5 11 11 -60 227 -80 247 -7 7 -12 16 -12 20
0 4 -8 16 -17 26 -33 35 -53 62 -53 72 0 6 -14 13 -31 17 -19 4 -26 9 -18 13
23 15 3 37 -29 32 -31 -4 -53 15 -32 28 14 9 5 30 -12 30 -7 0 -22 10 -34 21
-20 18 -27 20 -53 11 -29 -10 -31 -9 -31 14 0 17 -5 24 -20 24 -11 0 -20 4
-20 9 0 5 10 7 22 3 21 -5 21 -5 2 14 -10 11 -27 31 -36 44 l-17 25 -7 -22
c-7 -26 -22 -30 -30 -8 -8 20 -21 19 -41 -5 -10 -11 -24 -20 -33 -20 -9 0 -22
-9 -30 -20 -8 -12 -26 -20 -42 -20 -19 0 -28 -5 -28 -16 0 -10 -6 -13 -19 -9
-11 3 -21 0 -24 -8 -3 -8 -17 -17 -31 -19 -15 -3 -23 -1 -19 5 3 5 -4 6 -18 1
-13 -4 -34 -8 -46 -7 -16 1 -23 -5 -23 -19 0 -13 -6 -18 -17 -17 -30 5 -113
-12 -113 -22 0 -5 -4 -9 -10 -9 -5 0 -10 7 -10 16 0 12 -5 14 -17 9 -10 -4
-37 -11 -60 -15 -34 -5 -43 -4 -43 7 0 23 -24 9 -30 -18 -6 -22 -7 -22 -13 10
-4 18 -8 90 -9 160 -1 124 -1 125 -8 46 -5 -44 -11 -209 -15 -368 -8 -281 -9
-288 -29 -292 -12 -2 -70 -7 -131 -10 -60 -3 -146 -9 -190 -12 -44 -3 -141 -7
-215 -7 l-135 -1 -6 200 c-4 110 -7 239 -8 288 0 48 -5 87 -10 87 -4 0 -11
-27 -15 -60 -7 -61 -19 -81 -39 -61 -19 19 -29 12 -23 -14 5 -18 2 -25 -9 -25
-21 0 -19 -38 3 -43 9 -3 1 -5 -20 -6 -20 0 -38 -5 -40 -11 -3 -10 -247 -28
-513 -36 -233 -8 -750 10 -770 26 -10 8 -15 9 -15 1 0 -7 -40 -9 -132 -6 -73
2 -199 5 -280 6 -143 1 -148 2 -149 23 -1 11 -2 108 -4 214 -2 106 -6 196 -9
199 -3 4 -7 -81 -8 -188 -1 -107 -2 -210 -4 -229 -1 -19 -4 -111 -7 -203 -3
-105 -9 -173 -16 -180 -8 -8 -88 -8 -303 2 -161 7 -313 16 -338 19 -44 7 -45
8 -51 52 -7 52 -18 448 -20 755 l-2 210 -12 -178 c-7 -98 -15 -181 -19 -184
-3 -4 -6 7 -6 23 0 16 -7 38 -15 48 -14 19 -15 19 -35 -4 -11 -13 -20 -27 -20
-32 0 -5 -12 -14 -27 -21 -16 -6 -33 -16 -40 -22 -7 -5 -20 -16 -29 -24 -14
-12 -18 -12 -26 0 -7 11 -11 11 -15 2 -2 -7 -13 -13 -23 -13 -10 0 -21 -6 -24
-12 -5 -10 -7 -10 -12 0 -9 20 -26 14 -19 -8 5 -17 2 -20 -24 -20 -21 0 -31
-5 -31 -15 0 -8 -4 -15 -10 -15 -5 0 -10 7 -10 15 0 8 -9 15 -20 15 -11 0 -20
5 -20 10 0 14 -28 12 -33 -2 -2 -8 -8 -9 -13 -4 -5 5 -4 11 4 13 6 3 12 9 12
14 0 13 -38 11 -42 -2 -5 -16 -108 -19 -108 -2 0 7 -9 13 -20 13 -11 0 -20 4
-20 10 0 5 -26 7 -65 4 -44 -4 -65 -2 -65 5 0 7 -10 9 -24 5 -32 -8 -66 3 -66
22 0 11 -16 14 -67 16 -38 1 -78 1 -90 0 -14 0 -23 5 -23 14 0 8 -7 14 -15 14
-8 0 -15 5 -15 10 0 6 -11 10 -25 10 -14 0 -25 5 -25 10 0 6 -9 10 -20 10 -11
0 -20 5 -20 10 0 6 -16 10 -35 10 -34 0 -48 14 -22 23 6 2 8 8 4 13 -4 5 -12
2 -17 -5 -7 -12 -11 -11 -25 2 -9 10 -21 17 -26 17 -5 0 -9 5 -9 11 0 6 7 8
16 5 9 -4 32 -4 50 0 32 6 33 7 17 30 -14 22 -14 24 1 24 9 0 16 6 16 14 0 8
6 17 13 19 8 4 7 6 -4 6 -8 1 -58 -26 -109 -59 -68 -43 -87 -60 -70 -60 l24 0
-22 -20 c-17 -16 -30 -19 -55 -15 -26 5 -38 0 -66 -24 -19 -16 -44 -33 -55
-38 -80 -35 -154 -77 -278 -159 -79 -52 -148 -94 -155 -94 -15 0 -291 142
-357 184 -28 18 -59 35 -68 39 -10 3 -18 11 -18 16 0 12 105 90 303 226 81 55
147 103 147 108 0 4 -7 7 -15 7 -8 0 -15 -4 -15 -10 0 -18 -32 -11 -37 8 -2
10 -20 24 -39 31 -25 9 -34 17 -30 28 4 9 1 22 -5 29 -9 11 -8 14 5 14 11 0
16 9 16 30 0 17 -4 30 -10 30 -14 0 -12 28 3 33 7 2 8 8 3 13 -5 5 -11 4 -13
-3 -6 -17 -31 -16 -49 1 -20 20 -18 39 6 56 21 15 28 50 10 50 -5 0 -10 -4
-10 -10 0 -5 -5 -10 -10 -10 -6 0 -8 11 -4 26 5 20 3 25 -7 22 -8 -3 -15 -14
-17 -26 -4 -23 -26 -30 -38 -10 -4 6 0 16 9 23 10 7 17 15 17 19 0 4 7 14 15
22 17 17 20 64 5 64 -5 0 -10 -11 -10 -25 0 -16 -6 -25 -15 -25 -8 0 -15 9
-15 20 0 11 5 20 10 20 6 0 10 5 10 12 0 6 7 20 17 30 9 10 13 21 8 26 -4 4
-10 1 -12 -5 -3 -7 -14 -13 -26 -13 -18 0 -16 3 11 16 17 9 32 23 32 30 0 8
11 14 26 14 14 0 23 4 19 10 -3 6 0 10 9 10 8 0 16 3 18 8 2 4 16 17 32 30 20
15 24 22 12 22 -9 0 -16 -4 -16 -10 0 -5 -5 -10 -10 -10 -6 0 -39 -18 -73 -41
-34 -23 -85 -55 -113 -72 -29 -18 -86 -54 -129 -82 -42 -27 -109 -70 -148 -94
-78 -48 -240 -152 -326 -210 l-54 -35 -65 69 c-131 140 -283 335 -280 358 2
15 55 57 183 144 99 68 194 130 210 138 17 8 42 26 57 40 15 14 32 25 38 25 5
0 10 5 10 10 0 6 7 10 15 10 8 0 15 5 15 10 0 6 6 10 13 10 6 0 23 9 37 20 20
16 22 20 8 20 -10 0 -18 -3 -18 -8 0 -4 -15 -13 -32 -21 -18 -8 -36 -19 -40
-25 -4 -6 -20 -5 -46 3 -22 8 -52 11 -66 7 -19 -5 -26 -3 -26 9 0 8 5 15 10
15 6 0 10 5 10 10 0 6 -11 8 -25 4 -18 -4 -27 -1 -31 10 -3 9 -17 16 -31 16
-20 0 -23 4 -18 20 5 14 2 20 -9 20 -9 0 -16 -4 -16 -10 0 -5 -10 -10 -23 -10
-34 0 -87 75 -179 250 l-53 102 -198 -4 -199 -3 -18 50 c-17 47 -41 140 -104
412 -30 127 -31 139 -13 150 6 4 92 8 190 8 126 0 180 3 185 12 4 6 30 13 57
16 l50 3 -57 2 c-67 2 -80 22 -14 22 31 0 46 5 50 16 9 22 8 24 -9 24 -8 0
-15 -4 -15 -10 0 -5 -9 -10 -20 -10 -11 0 -20 5 -20 10 0 6 5 10 10 10 6 0 10
5 10 10 0 14 -38 12 -43 -2 -2 -7 -7 -10 -11 -7 -10 10 5 39 20 39 8 0 14 9
14 20 0 11 5 20 10 20 6 0 10 7 10 15 0 8 -4 15 -10 15 -5 0 -10 11 -10 25 0
18 -5 25 -20 25 -13 0 -20 -7 -20 -19 0 -37 -18 -31 -23 7 -2 20 -12 78 -20
127 -34 189 -38 225 -45 395 -10 228 1 513 27 725 21 172 44 311 56 353 l7 22
-170 0 c-202 0 -199 -2 -181 92 33 178 130 532 159 578 8 12 43 15 197 18 201
2 238 6 227 23 -4 6 6 39 21 73 16 33 37 81 48 106 11 25 28 56 37 70 17 24
130 230 130 236 0 2 -63 47 -141 100 -78 54 -143 104 -146 111 -8 21 242 363
266 363 8 0 28 -10 45 -23 17 -13 46 -30 64 -38 17 -8 32 -18 32 -22 0 -5 10
-7 23 -6 28 3 55 -8 91 -38 20 -17 36 -23 53 -18 22 5 23 4 13 -15 -8 -16 -17
-19 -33 -14 -20 6 -20 6 -3 -11 22 -23 43 -13 90 43 34 42 47 70 26 57 -6 -4
-10 5 -10 20 0 24 -3 26 -24 21 -16 -4 -30 0 -42 11 -12 13 -19 14 -22 5 -4
-14 -32 -16 -32 -2 0 6 7 10 15 10 8 0 15 7 15 16 0 9 14 29 30 44 36 34 39
60 8 61 -16 1 -18 3 -6 6 18 4 34 55 23 73 -10 17 -26 0 -20 -21 7 -22 5 -23
-30 -7 -14 6 -25 18 -25 27 0 35 -15 42 -40 21 -18 -16 -20 -20 -7 -20 10 0
17 -4 17 -10 0 -5 7 -10 15 -10 8 0 15 -7 15 -15 0 -8 -9 -15 -20 -15 -12 0
-20 7 -20 17 0 14 -2 14 -17 1 -10 -8 -28 -15 -41 -16 -23 -1 -52 -23 -52 -40
0 -12 -31 -25 -39 -16 -3 3 6 16 22 29 15 13 27 27 27 30 0 3 28 31 62 63 33
31 78 74 99 94 21 21 64 55 96 75 36 24 57 44 55 53 -3 17 194 154 333 233 97
54 290 147 305 147 6 0 23 9 38 20 31 23 303 132 442 179 52 17 142 42 200 55
58 13 184 44 280 69 230 60 288 72 542 108 316 45 345 49 438 54 47 3 123 10
170 15 163 19 366 29 575 30 116 0 364 4 553 9 312 9 655 3 942 -14 52 -4 185
-10 295 -16 302 -14 377 -19 530 -36 77 -8 174 -19 215 -23 377 -40 986 -153
1424 -266 226 -58 612 -179 622 -196 3 -4 14 -8 26 -8 15 0 18 4 13 18 -4 9
-20 53 -36 97 -26 75 -30 81 -66 93 -39 14 -192 57 -253 72 -19 5 -51 13 -70
19 -43 12 -212 60 -260 72 -19 6 -57 14 -85 19 -27 5 -72 14 -100 20 -105 25
-131 30 -165 36 -19 3 -44 9 -55 14 -29 12 -182 40 -335 60 -41 5 -104 14
-140 20 -244 41 -533 77 -675 84 -33 2 -105 9 -160 15 -263 30 -349 36 -715
56 -41 2 -352 6 -690 9 -452 3 -669 1 -820 -9z m-410 -55 c0 -5 -4 -10 -10
-10 -5 0 -10 5 -10 10 0 6 5 10 10 10 6 0 10 -4 10 -10z m6700 -1410 c0 -5 -4
-10 -10 -10 -5 0 -10 5 -10 10 0 6 5 10 10 10 6 0 10 -4 10 -10z m90 6 c0 -2
-7 -6 -15 -10 -8 -3 -15 -1 -15 4 0 6 7 10 15 10 8 0 15 -2 15 -4z m-9920 -86
c0 -5 -4 -10 -10 -10 -5 0 -10 5 -10 10 0 6 5 10 10 10 6 0 10 -4 10 -10z m90
-5 c0 -8 -4 -15 -10 -15 -5 0 -10 7 -10 15 0 8 5 15 10 15 6 0 10 -7 10 -15z
m-340 -4555 c0 -5 -7 -10 -15 -10 -8 0 -15 5 -15 10 0 6 7 10 15 10 8 0 15 -4
15 -10z m170 -104 c0 -3 -4 -8 -10 -11 -5 -3 -10 -1 -10 4 0 6 5 11 10 11 6 0
10 -2 10 -4z m717 -682 c-3 -3 -12 -4 -19 -1 -8 3 -5 6 6 6 11 1 17 -2 13 -5z
m803 -354 c0 -5 -2 -10 -4 -10 -3 0 -8 5 -11 10 -3 6 -1 10 4 10 6 0 11 -4 11
-10z m30 -35 c0 -8 -6 -15 -14 -15 -17 0 -28 14 -19 24 12 12 33 6 33 -9z
m-116 -31 c8 -20 9 -20 -31 -27 -39 -8 -41 -2 -10 24 27 23 33 23 41 3z m5831
-284 c3 -5 2 -10 -4 -10 -5 0 -13 5 -16 10 -3 6 -2 10 4 10 5 0 13 -4 16 -10z"/>
<path d="M16621 17974 c0 -11 3 -14 6 -6 3 7 2 16 -1 19 -3 4 -6 -2 -5 -13z"/>
<path d="M16640 17923 c0 -13 5 -23 10 -23 13 0 13 11 0 30 -8 12 -10 11 -10
-7z"/>
<path d="M16666 17860 c12 -70 16 -330 5 -330 -6 0 -11 5 -11 10 0 6 -9 10
-19 10 -13 0 -19 -7 -18 -22 1 -13 -2 -33 -7 -45 -5 -18 -4 -23 8 -23 9 0 16
7 16 15 0 8 4 15 8 15 14 0 8 -84 -7 -96 -10 -8 -12 -19 -6 -40 l8 -29 15 35
c28 64 35 114 39 260 4 138 1 167 -28 250 -7 20 -8 18 -3 -10z"/>
<path d="M16600 17420 c0 -5 9 -10 20 -10 11 0 20 5 20 10 0 6 -9 10 -20 10
-11 0 -20 -4 -20 -10z"/>
<path d="M16622 17300 c0 -14 2 -19 5 -12 2 6 2 18 0 25 -3 6 -5 1 -5 -13z"/>
<path d="M16531 17114 c0 -11 3 -14 6 -6 3 7 2 16 -1 19 -3 4 -6 -2 -5 -13z"/>
<path d="M16511 17084 c0 -11 3 -14 6 -6 3 7 2 16 -1 19 -3 4 -6 -2 -5 -13z"/>
<path d="M16363 16988 c-13 -6 -23 -15 -23 -20 0 -4 -11 -8 -24 -8 -30 0 -44
-19 -25 -31 12 -8 12 -11 -1 -19 -10 -7 -12 -12 -4 -17 6 -5 14 -18 18 -30 4
-13 12 -23 17 -23 14 0 119 113 119 129 0 5 6 11 13 14 6 2 9 7 6 11 -3 3 -16
-4 -28 -15 l-22 -21 -6 21 c-6 24 -9 24 -40 9z"/>
<path d="M6230 16900 c0 -5 7 -10 16 -10 8 0 12 5 9 10 -3 6 -10 10 -16 10 -5
0 -9 -4 -9 -10z"/>
<path d="M6348 16820 c12 -11 25 -20 31 -20 5 0 11 -5 13 -11 2 -7 10 -10 17
-8 8 3 -3 16 -28 32 -48 32 -64 35 -33 7z"/>
<path d="M14364 16787 c-21 -18 -50 -41 -64 -50 -13 -9 -19 -17 -12 -17 6 0
12 -6 12 -14 0 -8 7 -16 15 -20 8 -3 15 -15 15 -26 0 -11 3 -20 8 -20 4 0 20
-21 37 -48 28 -45 83 -103 142 -149 55 -42 93 -80 93 -91 0 -6 7 -9 15 -6 9 4
16 -3 21 -20 5 -21 9 -24 25 -15 10 5 19 6 19 2 0 -4 5 -2 12 5 15 15 28 16
28 2 0 -5 -7 -10 -15 -10 -8 0 -15 -4 -15 -10 0 -5 -9 -10 -21 -10 -11 0 -18
-4 -15 -9 3 -5 -1 -12 -10 -15 -9 -4 -14 -9 -12 -12 6 -5 48 16 141 74 l58 36
-53 49 c-29 27 -81 74 -115 104 -34 30 -104 111 -155 179 -51 68 -97 124 -103
124 -6 0 -29 -15 -51 -33z"/>
<path d="M16262 16795 c-7 -8 -9 -15 -4 -15 5 0 15 7 22 15 16 19 -1 19 -18 0z"/>
<path d="M6428 16763 c7 -3 16 -2 19 1 4 3 -2 6 -13 5 -11 0 -14 -3 -6 -6z"/>
<path d="M6450 16746 c0 -2 7 -6 15 -10 8 -3 15 -1 15 4 0 6 -7 10 -15 10 -8
0 -15 -2 -15 -4z"/>
<path d="M6130 16644 c0 -8 5 -12 10 -9 6 3 10 10 10 16 0 5 -4 9 -10 9 -5 0
-10 -7 -10 -16z"/>
<path d="M6100 16530 c0 -5 5 -10 10 -10 6 0 10 5 10 10 0 6 -4 10 -10 10 -5
0 -10 -4 -10 -10z"/>
<path d="M15690 16510 c0 -5 7 -10 15 -10 8 0 15 5 15 10 0 6 -7 10 -15 10 -8
0 -15 -4 -15 -10z"/>
<path d="M6181 16464 c0 -11 3 -14 6 -6 3 7 2 16 -1 19 -3 4 -6 -2 -5 -13z"/>
<path d="M5950 16400 c14 -10 26 -17 29 -15 6 7 -27 35 -41 35 -7 0 -2 -9 12
-20z"/>
<path d="M5990 16370 c0 -5 5 -10 11 -10 5 0 7 5 4 10 -3 6 -8 10 -11 10 -2 0
-4 -4 -4 -10z"/>
<path d="M15498 16323 c7 -3 16 -2 19 1 4 3 -2 6 -13 5 -11 0 -14 -3 -6 -6z"/>
<path d="M6078 16303 c7 -3 16 -2 19 1 4 3 -2 6 -13 5 -11 0 -14 -3 -6 -6z"/>
<path d="M15233 16259 c-5 -4 -41 -10 -82 -13 -41 -3 -77 -9 -80 -12 -7 -7
145 2 202 12 20 3 40 10 43 16 7 10 -72 8 -83 -3z"/>
<path d="M14368 15483 c7 -3 16 -2 19 1 4 3 -2 6 -13 5 -11 0 -14 -3 -6 -6z"/>
<path d="M8335 14870 c-129 -23 -277 -109 -360 -208 -65 -79 -128 -202 -150
-292 -17 -76 -20 -236 -4 -312 26 -130 84 -241 175 -338 247 -262 674 -263
933 -2 79 80 116 142 163 273 20 56 22 83 22 219 0 141 -2 162 -26 230 -34 97
-66 153 -129 226 -121 139 -305 216 -509 213 -41 -1 -93 -5 -115 -9z m238
-223 c18 -8 49 -33 70 -56 61 -68 50 -130 -36 -192 -76 -55 -190 -34 -237 43
-73 120 67 261 203 205z"/>
<path d="M12485 14874 c-11 -2 -45 -9 -75 -15 -65 -13 -92 -26 -185 -87 -280
-183 -377 -566 -223 -882 33 -68 58 -102 127 -171 71 -71 101 -93 171 -126
109 -52 182 -68 300 -68 301 1 545 193 621 490 20 80 27 265 12 340 -48 239
-201 411 -445 501 -42 15 -259 29 -303 18z m123 -241 c49 -36 66 -69 66 -127
1 -49 -3 -58 -34 -91 -127 -131 -354 19 -260 173 41 68 165 92 228 45z"/>
<path d="M9643 13704 c-9 -25 5 -124 27 -189 70 -205 199 -377 354 -474 247
-154 568 -184 856 -79 224 81 399 261 486 500 22 59 44 166 44 209 0 33 -3 37
-31 43 -17 3 -414 6 -881 6 -762 0 -849 -2 -855 -16z"/>
<path d="M5383 12893 c9 -2 25 -2 35 0 9 3 1 5 -18 5 -19 0 -27 -2 -17 -5z"/>
<path d="M15848 12893 c7 -3 16 -2 19 1 4 3 -2 6 -13 5 -11 0 -14 -3 -6 -6z"/>
<path d="M15148 11933 c7 -3 16 -2 19 1 4 3 -2 6 -13 5 -11 0 -14 -3 -6 -6z"/>
<path d="M15188 11913 c7 -3 16 -2 19 1 4 3 -2 6 -13 5 -11 0 -14 -3 -6 -6z"/>
<path d="M6100 11890 c0 -5 7 -7 15 -4 8 4 15 8 15 10 0 2 -7 4 -15 4 -8 0
-15 -4 -15 -10z"/>
<path d="M15228 11893 c7 -3 16 -2 19 1 4 3 -2 6 -13 5 -11 0 -14 -3 -6 -6z"/>
<path d="M6840 11670 c-14 -11 -31 -20 -37 -20 -7 0 -13 -4 -13 -8 0 -5 -10
-14 -22 -20 l-23 -11 23 0 c12 -1 22 4 22 9 0 6 9 10 21 10 11 0 17 5 14 10
-3 6 4 10 16 10 12 0 19 3 15 7 -3 4 4 13 16 20 14 7 17 12 8 12 -8 0 -26 -8
-40 -19z"/>
<path d="M6728 11593 c6 -2 18 -2 25 0 6 3 1 5 -13 5 -14 0 -19 -2 -12 -5z"/>
<path d="M14900 11510 c0 -5 8 -10 17 -10 9 0 13 -3 10 -7 -4 -3 7 -15 24 -25
21 -13 29 -24 25 -35 -5 -13 -4 -14 9 -3 13 11 19 10 35 -5 11 -10 23 -15 27
-12 8 8 14 3 -69 60 -72 50 -78 53 -78 37z"/>
<path d="M8535 11479 c-16 -11 -23 -18 -15 -15 8 3 23 9 33 12 9 4 17 10 17
15 0 12 -1 12 -35 -12z"/>
<path d="M7465 11418 c-22 -11 -42 -23 -45 -27 -6 -7 -48 -31 -55 -31 -3 0 -5
8 -3 18 4 21 -30 24 -50 5 -18 -17 -32 -16 -32 2 0 8 -4 15 -10 15 -5 0 -10
-11 -10 -25 0 -23 -13 -31 -42 -26 -5 0 -8 -8 -8 -19 0 -20 -15 -28 -22 -11
-4 12 -108 -20 -108 -33 0 -13 -61 -66 -76 -66 -7 0 -14 6 -17 13 -3 8 -11 5
-24 -10 -12 -14 -32 -23 -49 -23 -19 0 -34 -8 -42 -21 -17 -27 -9 -35 12 -13
9 9 20 13 24 9 4 -4 1 -10 -5 -12 -7 -3 -13 -11 -13 -19 0 -8 -4 -14 -9 -14
-5 0 -11 -9 -14 -20 -4 -16 -14 -20 -46 -20 -34 0 -41 -3 -41 -20 0 -13 -7
-20 -20 -20 -21 0 -29 -33 -10 -45 6 -3 10 -1 10 5 0 6 12 23 27 38 41 41 107
25 80 -20 -7 -10 -21 -18 -32 -19 -12 0 -15 -3 -7 -6 19 -8 45 7 237 133 94
61 229 148 300 194 72 45 132 86 135 90 3 4 12 10 20 13 13 5 13 5 0 5 -8 0
-33 -9 -55 -20z m-125 -60 c0 -19 -2 -20 -10 -8 -13 19 -13 30 0 30 6 0 10
-10 10 -22z"/>
<path d="M7388 11423 c7 -3 16 -2 19 1 4 3 -2 6 -13 5 -11 0 -14 -3 -6 -6z"/>
<path d="M15068 11393 c7 -3 16 -2 19 1 4 3 -2 6 -13 5 -11 0 -14 -3 -6 -6z"/>
<path d="M14100 11350 c0 -5 7 -10 15 -10 8 0 15 -4 15 -10 0 -5 5 -10 11 -10
14 0 2 18 -22 30 -13 7 -19 7 -19 0z"/>
<path d="M7130 11340 c0 -5 5 -10 10 -10 6 0 10 5 10 10 0 6 -4 10 -10 10 -5
0 -10 -4 -10 -10z"/>
<path d="M14168 11303 c7 -3 16 -2 19 1 4 3 -2 6 -13 5 -11 0 -14 -3 -6 -6z"/>
<path d="M14280 11230 c23 -18 50 -26 50 -16 0 5 -60 36 -69 36 -3 0 5 -9 19
-20z"/>
<path d="M6790 11170 c-8 -5 -11 -12 -7 -16 4 -4 13 -2 19 4 15 15 7 24 -12
12z"/>
<path d="M14730 11170 c0 -5 5 -10 10 -10 6 0 10 5 10 10 0 6 -4 10 -10 10 -5
0 -10 -4 -10 -10z"/>
<path d="M14810 11170 c0 -5 7 -10 15 -10 8 0 15 5 15 10 0 6 -7 10 -15 10 -8
0 -15 -4 -15 -10z"/>
<path d="M6692 11158 c-18 -18 -15 -27 8 -25 12 1 20 8 20 19 0 21 -11 23 -28
6z"/>
<path d="M14690 11130 c0 -11 5 -20 10 -20 6 0 10 9 10 20 0 11 -4 20 -10 20
-5 0 -10 -9 -10 -20z"/>
<path d="M14465 11110 c3 -5 8 -10 11 -10 2 0 4 5 4 10 0 6 -5 10 -11 10 -5 0
-7 -4 -4 -10z"/>
<path d="M14606 11092 c-3 -5 1 -18 9 -28 14 -18 14 -18 15 3 0 23 -15 39 -24
25z"/>
<path d="M6700 11080 c0 -5 5 -10 10 -10 6 0 10 5 10 10 0 6 -4 10 -10 10 -5
0 -10 -4 -10 -10z"/>
<path d="M13100 11050 c0 -5 7 -10 15 -10 8 0 15 5 15 10 0 6 -7 10 -15 10 -8
0 -15 -4 -15 -10z"/>
<path d="M6680 11040 c0 -5 7 -10 15 -10 8 0 15 5 15 10 0 6 -7 10 -15 10 -8
0 -15 -4 -15 -10z"/>
<path d="M14558 11043 c7 -3 16 -2 19 1 4 3 -2 6 -13 5 -11 0 -14 -3 -6 -6z"/>
<path d="M13168 10980 c9 -27 19 -50 24 -50 4 0 8 -8 9 -17 1 -10 5 0 10 22
12 48 9 55 -29 78 l-30 17 16 -50z"/>
<path d="M14578 11023 c6 -2 18 -2 25 0 6 3 1 5 -13 5 -14 0 -19 -2 -12 -5z"/>
<path d="M8762 10990 c0 -14 2 -19 5 -12 2 6 2 18 0 25 -3 6 -5 1 -5 -13z"/>
<path d="M6800 10979 c0 -5 5 -7 10 -4 6 3 10 8 10 11 0 2 -4 4 -10 4 -5 0
-10 -5 -10 -11z"/>
<path d="M12931 10734 c0 -11 3 -14 6 -6 3 7 2 16 -1 19 -3 4 -6 -2 -5 -13z"/>
<path d="M7348 10723 c7 -3 16 -2 19 1 4 3 -2 6 -13 5 -11 0 -14 -3 -6 -6z"/>
<path d="M12947 10697 c-11 -29 -9 -53 4 -40 6 6 9 21 7 34 -3 21 -4 22 -11 6z"/>
<path d="M12972 10640 c0 -14 2 -19 5 -12 2 6 2 18 0 25 -3 6 -5 1 -5 -13z"/>
<path d="M8560 10600 c0 -5 5 -10 10 -10 6 0 10 5 10 10 0 6 -4 10 -10 10 -5
0 -10 -4 -10 -10z"/>
<path d="M11470 10425 c0 -8 5 -15 10 -15 6 0 10 7 10 15 0 8 -4 15 -10 15 -5
0 -10 -7 -10 -15z"/>
<path d="M13206 10433 c-12 -12 -5 -23 14 -23 11 0 20 4 20 9 0 11 -26 22 -34
14z"/>
<path d="M11390 10385 c0 -8 5 -15 10 -15 6 0 10 7 10 15 0 8 -4 15 -10 15 -5
0 -10 -7 -10 -15z"/>
<path d="M8550 7811 c-14 -4 -59 -9 -100 -9 -78 -2 -183 -17 -236 -33 -17 -5
-39 -9 -50 -9 -10 0 -26 -5 -34 -10 -11 -7 2 -10 43 -10 36 0 56 4 52 10 -4 6
22 10 70 10 42 0 74 4 71 8 -11 18 213 34 436 32 151 -1 228 2 233 9 7 13
-444 14 -485 2z"/>
<path d="M9135 7790 c17 -4 56 -8 88 -9 31 0 57 -5 57 -11 0 -5 15 -10 33 -11
26 0 28 -2 12 -9 -17 -6 -13 -9 20 -15 22 -3 53 -11 69 -16 39 -12 74 -11 78
2 2 5 11 7 21 4 9 -4 14 -11 11 -17 -3 -5 3 -4 14 3 11 7 27 9 38 5 18 -8 18
-8 -1 -16 -13 -5 1 -7 38 -6 45 2 57 0 53 -11 -3 -8 2 -13 14 -13 11 0 19 -5
18 -11 -2 -6 31 -23 72 -39 41 -16 98 -40 125 -55 28 -15 68 -36 90 -48 55
-29 124 -95 141 -136 43 -102 -11 -290 -139 -482 -60 -89 -96 -112 -168 -106
-31 3 -71 13 -89 22 -86 44 -284 110 -380 125 -41 7 -111 19 -155 27 -118 21
-358 28 -478 13 -152 -18 -386 -67 -469 -96 -171 -62 -336 -166 -470 -296 -79
-78 -188 -218 -188 -242 0 -3 -21 -43 -46 -88 -25 -46 -54 -108 -64 -138 -10
-30 -27 -80 -38 -110 -11 -30 -23 -86 -26 -125 -4 -38 -12 -107 -18 -153 -11
-80 -12 -83 -35 -77 -19 4 -23 2 -23 -20 0 -16 6 -25 15 -25 8 0 15 -4 15 -10
0 -5 -7 -10 -15 -10 -8 0 -15 5 -15 10 0 6 -7 10 -16 10 -8 0 -22 7 -30 15
-19 18 -29 19 -46 3 -18 -18 -63 -21 -90 -7 -42 22 -70 60 -64 85 4 14 2 24
-4 24 -5 0 -10 -4 -10 -10 0 -5 -20 -10 -43 -10 -44 0 -87 -24 -87 -49 0 -6
-4 -11 -10 -11 -5 0 -10 7 -10 15 0 8 5 15 10 15 6 0 10 7 10 15 0 8 -9 15
-20 15 -22 0 -27 16 -7 23 7 2 8 8 3 13 -5 5 -11 4 -13 -3 -3 -7 -11 -13 -18
-13 -7 0 -15 -5 -17 -10 -2 -6 -24 -11 -51 -12 -26 -1 -47 -6 -47 -11 0 -5
-13 -22 -30 -37 -16 -15 -30 -31 -30 -35 0 -12 29 -35 44 -35 9 0 16 -4 16
-10 0 -5 -13 -10 -28 -10 -21 0 -32 7 -40 25 -6 14 -18 25 -27 25 -18 0 -20
-27 -3 -32 11 -4 13 -15 17 -90 1 -21 6 -28 21 -28 11 0 20 -7 20 -15 0 -8 -9
-15 -20 -15 -11 0 -20 -4 -20 -10 0 -5 9 -10 20 -10 22 0 27 -15 8 -23 -10 -4
-9 -8 2 -16 12 -8 11 -13 -8 -29 -22 -20 -30 -52 -12 -52 6 0 10 -9 10 -20 0
-11 -4 -20 -10 -20 -5 0 -10 -9 -10 -20 0 -14 -7 -20 -24 -20 -13 0 -27 6 -30
13 -5 10 -7 10 -12 0 -9 -20 -24 -15 -24 7 0 11 -4 20 -10 20 -5 0 -10 11 -10
25 0 14 5 25 10 25 6 0 10 7 10 15 0 8 -4 15 -10 15 -5 0 -10 -4 -10 -10 0
-15 -48 -12 -53 3 -3 8 -11 4 -26 -12 l-21 -24 -1 29 c-2 52 -7 88 -18 134
-15 65 -13 364 4 510 29 257 125 538 260 763 102 168 364 449 520 557 44 30
88 61 97 70 27 24 208 130 223 130 8 0 16 4 19 9 9 14 105 58 201 91 50 17
102 38 117 46 14 7 33 14 41 14 8 0 18 7 21 15 3 9 19 21 36 26 16 6 27 15 24
20 -3 5 14 9 37 9 29 0 40 3 33 10 -10 10 -108 -6 -214 -37 -160 -46 -455
-187 -619 -298 -649 -435 -979 -1169 -901 -1997 10 -103 40 -269 60 -333 60
-189 86 -257 160 -410 176 -364 552 -728 945 -914 101 -48 326 -128 421 -150
49 -12 107 -26 129 -31 340 -83 936 -94 1333 -25 221 38 466 112 620 187 46
23 137 76 202 119 115 76 175 133 207 194 42 79 43 98 43 905 0 808 -1 825
-43 906 -23 46 -91 102 -129 108 -58 9 -358 16 -978 22 l-606 6 -30 -25 c-49
-41 -56 -94 -52 -394 l3 -261 31 -39 c51 -62 70 -66 427 -71 l317 -4 0 -330 0
-329 -45 -20 c-24 -11 -79 -29 -122 -40 -154 -40 -233 -49 -428 -49 -310 1
-457 30 -670 135 -194 95 -335 218 -450 390 -247 372 -259 953 -28 1344 98
166 252 323 408 416 93 55 229 117 300 136 17 4 55 15 85 23 137 40 456 57
640 36 212 -25 335 -59 615 -166 185 -71 298 -12 412 217 75 151 104 240 106
330 2 83 -20 144 -72 193 -84 80 -431 236 -524 236 -20 0 -37 4 -37 9 0 5 -35
16 -77 25 -43 10 -94 22 -114 27 -20 5 -59 9 -87 9 -28 0 -54 5 -57 10 -3 6
-45 9 -93 9 -61 -1 -78 -4 -57 -9z m725 -1915 c394 -6 450 -10 450 -31 0 -8
-7 -14 -15 -14 -8 0 -15 -5 -15 -11 0 -6 -7 -8 -15 -5 -13 5 -15 0 -9 -29 6
-33 5 -35 -20 -35 -22 0 -26 -3 -21 -23 6 -21 3 -22 -40 -19 -35 3 -45 1 -45
-11 0 -9 6 -17 13 -20 6 -2 9 -8 5 -12 -5 -5 -16 2 -27 13 -23 28 -29 28 -33
0 -2 -18 -8 -22 -28 -20 -14 2 -26 8 -28 13 -6 16 -42 10 -42 -8 0 -14 -3 -14
-12 -5 -10 10 -10 15 2 22 24 16 -6 30 -62 30 -36 0 -48 -4 -48 -15 0 -8 9
-15 20 -15 29 0 25 -17 -5 -22 -17 -4 -25 -1 -25 8 0 8 -4 14 -10 14 -5 0 -10
7 -10 15 0 8 -7 15 -16 15 -9 0 -25 10 -35 22 -11 11 -22 18 -26 14 -4 -4 -1
-11 7 -17 13 -8 13 -10 0 -19 -20 -13 -30 -13 -30 1 0 17 -27 39 -49 39 -14 0
-21 6 -21 20 0 11 -4 20 -8 20 -4 0 -14 -9 -22 -20 -15 -21 -40 -27 -40 -10 0
6 7 10 15 10 8 0 15 5 15 10 0 6 -20 10 -45 10 -42 0 -60 -13 -32 -23 7 -2 8
-8 3 -13 -5 -5 -11 -4 -13 4 -9 25 -33 12 -33 -18 l0 -30 -80 0 c-64 0 -80 -3
-80 -15 0 -16 -26 -21 -32 -7 -1 5 -15 12 -30 16 -21 5 -28 3 -28 -9 0 -8 9
-15 20 -15 11 0 20 -7 20 -15 0 -22 -16 -18 -44 10 -30 30 -36 31 -36 5 0 -15
-7 -20 -25 -20 -14 0 -25 5 -25 10 0 6 7 10 15 10 8 0 15 7 15 15 0 8 -7 15
-15 15 -9 0 -18 -7 -21 -15 -4 -8 -15 -15 -25 -15 -10 0 -19 -7 -19 -15 0 -18
-23 -19 -52 -4 -11 6 -23 7 -27 3 -8 -12 -131 -13 -131 -2 0 5 -13 22 -30 38
-16 16 -30 34 -30 40 0 5 -11 10 -25 10 -14 0 -25 6 -26 13 0 10 -2 10 -6 0
-10 -26 -22 -12 -29 33 -4 28 -2 55 5 71 l11 25 368 -6 c202 -3 522 -8 712
-11z m467 -57 c-3 -8 -6 -5 -6 6 -1 11 2 17 5 13 3 -3 4 -12 1 -19z m-647 -98
c0 -5 -7 -10 -15 -10 -8 0 -15 5 -15 10 0 6 7 10 15 10 8 0 15 -4 15 -10z
m-2770 -50 c0 -5 -4 -10 -10 -10 -5 0 -10 5 -10 10 0 6 5 10 10 10 6 0 10 -4
10 -10z m170 0 c0 -5 -5 -10 -11 -10 -5 0 -7 5 -4 10 3 6 8 10 11 10 2 0 4 -4
4 -10z m2740 -5 c0 -8 -4 -15 -10 -15 -5 0 -10 7 -10 15 0 8 5 15 10 15 6 0
10 -7 10 -15z m-3040 -40 c0 -8 -4 -15 -10 -15 -5 0 -10 7 -10 15 0 8 5 15 10
15 6 0 10 -7 10 -15z m310 -6 c0 -5 -11 -9 -25 -9 -14 0 -25 6 -25 14 0 9 8
12 25 8 14 -2 25 -8 25 -13z m210 -29 c0 -16 -7 -20 -31 -20 -20 0 -29 4 -26
13 2 6 11 11 21 9 9 -2 16 2 16 8 0 5 5 10 10 10 6 0 10 -9 10 -20z m-90 -25
c0 -8 -4 -15 -10 -15 -5 0 -10 7 -10 15 0 8 5 15 10 15 6 0 10 -7 10 -15z
m-470 -25 c0 -5 -4 -10 -10 -10 -5 0 -10 5 -10 10 0 6 5 10 10 10 6 0 10 -4
10 -10z"/>
<path d="M9780 5830 c0 -5 5 -10 10 -10 6 0 10 5 10 10 0 6 -4 10 -10 10 -5 0
-10 -4 -10 -10z"/>
<path d="M9860 5825 c0 -8 7 -15 15 -15 8 0 15 7 15 15 0 8 -7 15 -15 15 -8 0
-15 -7 -15 -15z"/>
<path d="M9901 5769 c11 -11 23 -18 26 -15 7 7 -22 36 -36 36 -6 0 -2 -9 10
-21z"/>
<path d="M10030 5695 c0 -8 9 -15 20 -15 11 0 20 7 20 15 0 8 -9 15 -20 15
-11 0 -20 -7 -20 -15z"/>
<path d="M12897 7748 c-49 -5 -130 -17 -180 -28 l-92 -18 57 -1 c31 -1 60 4
63 9 3 6 35 10 71 10 36 0 64 4 64 10 0 6 92 10 255 10 140 0 255 -4 255 -9 0
-11 163 -20 220 -12 l45 7 -45 7 c-173 27 -524 35 -713 15z"/>
<path d="M13655 7710 c-4 -6 17 -10 57 -9 50 1 57 3 33 9 -44 11 -83 11 -90 0z"/>
<path d="M12580 7692 c-19 -1 -44 -7 -55 -12 -11 -4 -32 -11 -47 -14 -16 -3
-40 -9 -55 -12 -16 -3 -37 -9 -48 -14 -11 -4 -47 -18 -80 -30 -169 -64 -372
-166 -511 -258 -165 -109 -398 -338 -510 -502 -184 -269 -292 -543 -351 -890
-25 -149 -25 -621 1 -760 32 -178 83 -336 168 -518 21 -46 38 -86 38 -89 0
-14 122 -190 193 -278 341 -427 771 -676 1342 -778 239 -43 279 -47 498 -47
343 1 570 34 847 127 304 101 559 287 628 457 42 107 19 249 -74 443 -62 130
-174 226 -263 225 -48 -1 -148 -39 -240 -91 -174 -98 -311 -151 -501 -193 -92
-20 -132 -23 -315 -23 -201 1 -215 2 -330 32 -141 35 -246 82 -359 157 -260
175 -413 408 -483 737 -24 116 -24 407 1 533 66 335 302 646 607 798 216 108
323 131 595 130 183 0 225 -4 373 -39 66 -15 191 -62 245 -92 77 -43 214 -110
245 -120 97 -31 193 4 265 95 48 61 145 249 177 341 26 77 28 193 4 253 -44
107 -150 193 -377 303 -99 48 -262 107 -296 107 -11 0 -24 5 -27 10 -3 6 -30
10 -58 9 l-52 -1 45 -10 c46 -10 75 -26 65 -36 -6 -6 91 -53 103 -50 11 3 170
-73 291 -139 64 -35 157 -109 188 -150 26 -33 28 -44 28 -122 0 -79 -3 -92
-37 -161 -20 -41 -56 -118 -81 -170 -59 -127 -106 -178 -170 -187 -40 -5 -57
-1 -110 25 -223 109 -328 151 -477 188 -136 35 -454 45 -591 19 -185 -34 -398
-108 -487 -167 -24 -15 -45 -28 -47 -28 -20 0 -143 -101 -206 -170 -66 -72
-179 -221 -179 -236 0 -2 -11 -21 -24 -42 -13 -20 -48 -98 -76 -172 -29 -74
-56 -143 -61 -152 -5 -10 -9 -27 -9 -38 0 -14 -5 -18 -16 -13 -14 5 -16 1 -12
-19 4 -19 1 -25 -9 -21 -7 3 -13 14 -13 24 0 10 -4 19 -10 19 -5 0 -10 -4 -10
-10 0 -5 -9 -10 -20 -10 -11 0 -20 5 -20 10 0 6 -11 10 -25 10 -16 0 -25 -6
-25 -15 0 -18 -12 -19 -27 -4 -7 7 -17 8 -29 1 -11 -5 -34 -7 -53 -5 -21 4
-36 1 -41 -8 -7 -10 -14 -10 -35 -1 -14 7 -37 12 -50 12 -14 0 -25 5 -25 10 0
6 -9 10 -20 10 -16 0 -20 -7 -20 -30 0 -23 4 -30 20 -30 11 0 20 -7 20 -15 0
-10 -11 -15 -35 -15 -19 0 -35 -4 -35 -10 0 -5 7 -10 15 -10 8 0 15 -4 15 -10
0 -5 -20 -10 -45 -10 -38 0 -45 -3 -45 -20 0 -22 -25 -27 -34 -7 -5 10 -7 10
-12 0 -3 -7 -14 -13 -25 -13 -10 0 -19 -7 -19 -15 0 -18 -27 -20 -33 -2 -2 7
-8 8 -13 3 -5 -5 -4 -11 4 -13 14 -5 17 -33 3 -33 -5 0 -16 7 -25 15 -21 22
-26 19 -26 -16 0 -38 -27 -69 -42 -48 -7 11 -11 11 -15 2 -6 -15 -33 -17 -33
-3 0 14 -37 12 -44 -2 -5 -10 -7 -10 -12 0 -9 19 -24 14 -24 -8 0 -11 -4 -20
-10 -20 -5 0 -10 -10 -10 -22 -1 -20 -2 -21 -10 -6 -6 10 -9 97 -6 220 3 157
8 225 25 301 42 195 72 285 152 453 10 22 19 43 19 47 0 16 120 202 189 291
102 134 351 381 468 465 18 13 33 30 33 38 0 7 5 13 12 13 6 0 26 11 44 25 18
14 38 25 44 25 6 0 24 13 40 28 19 20 38 29 61 29 21 0 38 7 51 22 10 13 18
19 18 15 0 -5 5 -1 11 9 5 9 15 17 21 17 6 0 19 6 27 13 9 7 52 24 96 37 44
14 82 27 85 30 3 4 32 12 65 20 33 7 69 18 80 24 11 5 36 12 55 16 43 7 28 17
-20 12z m-830 -1847 c0 -8 -4 -15 -10 -15 -5 0 -10 7 -10 15 0 8 5 15 10 15 6
0 10 -7 10 -15z m73 -6 c4 -16 11 -19 26 -14 24 7 29 -10 5 -19 -30 -11 -64 4
-64 30 0 30 26 32 33 3z m107 -26 c-11 -17 -11 -17 -6 0 3 10 6 24 7 30 0 9 2
9 5 0 3 -7 0 -20 -6 -30z m-180 -3 c0 -5 -2 -10 -4 -10 -3 0 -8 5 -11 10 -3 6
-1 10 4 10 6 0 11 -4 11 -10z m-410 -145 c0 -8 -4 -15 -10 -15 -5 0 -10 7 -10
15 0 8 5 15 10 15 6 0 10 -7 10 -15z m-90 -85 c0 -5 -4 -10 -10 -10 -5 0 -10
5 -10 10 0 6 5 10 10 10 6 0 10 -4 10 -10z"/>
<path d="M20180 5996 c0 -9 5 -16 10 -16 6 0 10 4 10 9 0 6 -4 13 -10 16 -5 3
-10 -1 -10 -9z"/>
<path d="M20200 5955 c0 -9 -6 -26 -14 -38 -8 -12 -20 -51 -26 -86 -27 -151
-98 -271 -238 -403 -76 -72 -126 -103 -144 -92 -28 18 40 -77 125 -174 l92
-104 54 59 c113 123 194 261 226 384 32 120 10 302 -51 437 -16 35 -24 40 -24
17z"/>
<path d="M11770 5910 c0 -5 5 -10 10 -10 6 0 10 5 10 10 0 6 -4 10 -10 10 -5
0 -10 -4 -10 -10z"/>
<path d="M11430 5825 c0 -8 5 -15 10 -15 6 0 10 7 10 15 0 8 -4 15 -10 15 -5
0 -10 -7 -10 -15z"/>
<path d="M4320 5412 c0 -7 5 -12 10 -12 6 0 10 -7 10 -15 0 -8 5 -15 10 -15
16 0 12 15 -10 35 -11 10 -20 13 -20 7z"/>
<path d="M4360 5345 c0 -8 5 -15 10 -15 6 0 10 -10 10 -22 0 -17 3 -19 12 -10
9 9 8 17 -2 37 -15 28 -30 33 -30 10z"/>
<path d="M4400 5275 c0 -14 5 -25 10 -25 6 0 10 -6 10 -14 0 -8 7 -16 15 -20
8 -3 15 -15 15 -28 0 -17 3 -19 12 -10 10 10 7 24 -16 67 -31 60 -46 69 -46
30z"/>
<path d="M6660 5285 c0 -8 5 -15 10 -15 6 0 10 7 10 15 0 8 -4 15 -10 15 -5 0
-10 -7 -10 -15z"/>
<path d="M4542 4955 c0 -16 2 -22 5 -12 2 9 2 23 0 30 -3 6 -5 -1 -5 -18z"/>
<path d="M4561 4859 c-1 -53 -25 -75 -41 -36 -6 14 -9 -31 -9 -133 -1 -163
-20 -367 -45 -485 -41 -192 -157 -500 -251 -666 l-55 -98 -58 -11 c-31 -6 -73
-14 -92 -19 -19 -5 -93 -15 -164 -22 -210 -20 -538 -2 -756 42 -110 22 -144
26 -164 22 -17 -4 -18 -3 -6 6 11 8 11 11 3 12 -16 2 -23 4 -48 13 -109 42
-109 42 -101 21 4 -10 -1 -15 -14 -15 -11 0 -20 -4 -20 -9 0 -11 25 -21 56
-21 13 0 24 -4 24 -10 0 -5 7 -10 15 -10 8 0 15 5 15 10 0 6 10 10 23 9 l22 0
-22 -11 c-23 -11 -31 -28 -13 -28 6 0 10 -5 10 -11 0 -6 -6 -9 -13 -6 -8 3
-20 1 -28 -4 -11 -7 -9 -9 8 -9 12 0 25 -4 28 -10 3 -5 13 -10 22 -10 9 0 36
-10 60 -21 25 -12 59 -25 76 -30 18 -4 50 -13 72 -19 267 -75 743 -92 985 -34
136 32 173 57 237 156 118 182 214 452 264 743 30 172 30 542 1 660 -20 78
-20 79 -21 34z m-1651 -1469 c0 -5 -2 -10 -4 -10 -3 0 -8 5 -11 10 -3 6 -1 10
4 10 6 0 11 -4 11 -10z"/>
<path d="M2720 3520 c0 -5 9 -10 20 -10 11 0 20 5 20 10 0 6 -9 10 -20 10 -11
0 -20 -4 -20 -10z"/>
<path d="M2785 3420 c-3 -5 -1 -10 4 -10 6 0 11 5 11 10 0 6 -2 10 -4 10 -3 0
-8 -4 -11 -10z"/>
<path d="M15925 2200 c-3 -5 -1 -10 4 -10 6 0 11 5 11 10 0 6 -2 10 -4 10 -3
0 -8 -4 -11 -10z"/>
</g>
</svg>
